<svg id="Layer_1" data-name="Layer 1" xmlns="http://www.w3.org/2000/svg" viewBox="0 0 4.83 4.54"><defs><style>.cls-1{fill:#5b769b;fill-rule:evenodd;}</style></defs><title>galactic-arcades</title><path class="cls-1" d="M1.55,2.79l.35,1,.17-.6L2,3.11A.15.15,0,0,1,2,3c0-.09.14-.08.23-.08s.21,0,.24.1a.17.17,0,0,1,0,.13l-.08.09.17.6.31-1a.93.93,0,0,0,.3.14l.06-.06a1,1,0,0,1,1.67.69,1,1,0,0,1-1,1,1,1,0,0,1-.55-.17H.24A.23.23,0,0,1,0,4.15a1.84,1.84,0,0,1,.21-.81.55.55,0,0,1,.2-.17C.66,3,1.33,3,1.55,2.79Zm1.8.85.18-.18.25.24.4-.53.2.16c-.09.12-.43.58-.5.64a.14.14,0,0,1-.2,0l-.33-.32ZM4.44,3A.82.82,0,0,0,3.26,3a.85.85,0,0,0,0,1.18A.83.83,0,1,0,4.44,3ZM1.39,1.33h.08L1.42,1A.55.55,0,0,1,1.54.72a.36.36,0,0,1,.2-.11c.1,0,.14.07.24.14A1.79,1.79,0,0,0,3,1l-.05.25s0,0,0,0h0v0s0,0,0,0H3c.07,0,.12,0,.13,0a.3.3,0,0,1-.05.19l-.21.36a1.77,1.77,0,0,1-.27.37.55.55,0,0,1-.39.15.52.52,0,0,1-.37-.15A1.53,1.53,0,0,1,1.55,2l-.19-.3h0a.52.52,0,0,1-.1-.22.43.43,0,0,1,0-.05l0,0s.05,0,.09,0Zm1.72-.07V.76A.75.75,0,0,0,2.93.29,1.1,1.1,0,0,0,1.8.06L1.63.15A.77.77,0,0,0,1.3.57a.5.5,0,0,0,0,.12,3.33,3.33,0,0,0,0,.55l-.05,0a.23.23,0,0,0-.07.07.36.36,0,0,0,0,.1.7.7,0,0,0,.11.29l.2.3a1.64,1.64,0,0,0,.28.37.63.63,0,0,0,.44.17.67.67,0,0,0,.47-.18A1.84,1.84,0,0,0,2.93,2l.22-.36h0a.36.36,0,0,0,0-.29.14.14,0,0,0-.09-.08Z"/></svg>