<svg id="Layer_1" data-name="Layer 1" xmlns="http://www.w3.org/2000/svg" viewBox="0 0 24.19 18.36"><defs><style>.cls-1{fill:#5b769b;fill-rule:evenodd;}</style></defs><title>moon-landing-tour</title><path class="cls-1" d="M11.38,3.83h6.2L19,6.35h2.91a.28.28,0,0,1,.28.28v6.89a7,7,0,0,1,2.32,1.29,2.34,2.34,0,0,1,.84,1.69,2.3,2.3,0,0,1-.82,1.7c-.94.89-2.84,1.67-5.71,2.15a.62.62,0,0,1-.68-.58.67.67,0,0,1,.51-.77c2.64-.45,4.33-1.12,5.12-1.85a1,1,0,0,0,.38-.64,1.05,1.05,0,0,0-.4-.64A5.25,5.25,0,0,0,22.19,15v1.5a.29.29,0,0,1-.28.28H5a.29.29,0,0,1-.28-.28V14.78A4.84,4.84,0,0,0,2.57,16a.77.77,0,0,0-.18.69,2.12,2.12,0,0,0,.78,1,10.26,10.26,0,0,0,6.54,1.7l-.54-.42a.6.6,0,0,1-.1-.84A.59.59,0,0,1,9.9,18l1.75,1.37a.58.58,0,0,1,.1.83l-.08.09L9.72,22a.59.59,0,1,1-.79-.88l.45-.41a11.37,11.37,0,0,1-6.89-1.95,3.46,3.46,0,0,1-1.24-1.65,2.14,2.14,0,0,1,.44-2.05,6.35,6.35,0,0,1,3-1.71V6.63A.28.28,0,0,1,5,6.35H6.3V5.44H7.92v.91H9.68l1.1-2.17c.22-.44.1-.35.6-.35Zm9,3.76a.84.84,0,1,1-.84.84.85.85,0,0,1,.84-.84Zm-6.18,1a2.55,2.55,0,1,1-2.54,2.54,2.55,2.55,0,0,1,2.54-2.54Zm0-1.66a4.2,4.2,0,1,1-4.2,4.2,4.2,4.2,0,0,1,4.2-4.2Z" transform="translate(-1.15 -3.82)"/></svg>