<svg id="Layer_1" data-name="Layer 1" xmlns="http://www.w3.org/2000/svg" viewBox="0 0 26.5 24.78"><defs><style>.cls-1{fill:#5b769b;}</style></defs><title>rover-exepditions</title><path class="cls-1" d="M9.17,12a.15.15,0,0,1,.09.06l1,1.16a6.83,6.83,0,0,0,1.34,1.29,3.36,3.36,0,0,0,1.92.56,3.42,3.42,0,0,0,2-.59,7.16,7.16,0,0,0,1.38-1.37l.55-.66.11-.14.22-.25a.13.13,0,0,1,.07-.06,6.51,6.51,0,0,0,.21-.92,4.42,4.42,0,0,0-.31-2.8,3.29,3.29,0,0,0-1.6-1.56c.67.75,1.23,1.47,1.08,2.06a18.77,18.77,0,0,0-2.53-2.33,6.29,6.29,0,0,1-3.38-3.77C8.64,5.4,8.17,8.57,9.17,12Zm10.17,7.87,1-1,1.42,1.36,2.19-2.93,1.1.88c-.52.64-2.35,3.16-2.76,3.49a.83.83,0,0,1-1.11,0l-1.82-1.74Zm-9.28-3.79a3.76,3.76,0,0,0,6.8,0L16,15l-.11-.16a4.07,4.07,0,0,1-2.35.66,4,4,0,0,1-2.29-.67,3.61,3.61,0,0,1-.44-.33c-.09.26-.21.58-.34.87a4.58,4.58,0,0,1-.39.74Zm8.08-3.65-.08.09-.11.13-.55.66a9.13,9.13,0,0,1-1.13,1.2l.12.17a6.46,6.46,0,0,0,.83,1.06l0,0a3.34,3.34,0,0,0,.68.37,6,6,0,0,1,.47-.55,5.38,5.38,0,1,1-1.57,3.8,5.29,5.29,0,0,1,.86-2.91l-.48-.24c-.66,3.06-5.87,3.79-7.48.17a11.56,11.56,0,0,1-3.61,1.21l.77,5.54H2.32c-2.27-.17-.87-3.45-.19-4.35a4,4,0,0,1,1.19-1c1.35-.75,4.88-1,6.34-2l.33-.65.4-1c-.21-.22-.41-.44-.6-.67l-.85-1-.64,0-1.21,0c-1-1.19-1-3.76-.87-5.24.48-3,1.63-5.13,3.51-6.37A5.21,5.21,0,0,1,13.24,0a4.87,4.87,0,0,1,3.2.7c3.6,2.37,4.72,8,3,11.74Zm7.27,3.76a4.54,4.54,0,1,0,1.33,3.21,4.54,4.54,0,0,0-1.33-3.21Z" transform="translate(-1.07 0)"/></svg>