<svg id="Layer_1" data-name="Layer 1" xmlns="http://www.w3.org/2000/svg" viewBox="0 0 21.45 16.7"><defs><style>.cls-1,.cls-2{fill:#5b769b;}.cls-1{fill-rule:evenodd;}</style></defs><title>space-bar</title><path class="cls-1" d="M10.83,4.67H18l1.27,2.25-2.74,2a4.85,4.85,0,0,0-7.29,4.19,4.59,4.59,0,0,0,.1,1l-6.2,4.45V7.9a.33.33,0,0,1,.32-.33H8.86c.43-.83.85-1.66,1.27-2.5.26-.51.12-.4.7-.4ZM22,7.57h1a.32.32,0,0,1,.32.33V19.24a.33.33,0,0,1-.32.33H5.27l5-3.56a4.81,4.81,0,0,0,3.86,1.92,4.86,4.86,0,0,0,4.85-4.85,4.79,4.79,0,0,0-.84-2.72L22,7.59s0,0,0,0Zm-5.43,3.91a2.94,2.94,0,0,1-4.77,3.42l4.77-3.42Z" transform="translate(-3.13 -4.66)"/><polygon class="cls-2" points="1.75 16.7 0.52 14.98 20.22 1.07 21.45 2.79 1.75 16.7"/></svg>